<?xml version="1.0" encoding="UTF-8"?>
<!DOCTYPE svg PUBLIC "-//W3C//DTD SVG 1.1//EN" "http://www.w3.org/Graphics/SVG/1.1/DTD/svg11.dtd">
<svg xmlns="http://www.w3.org/2000/svg" version="1.1" width="3840px" height="2160px" style="shape-rendering:geometricPrecision; text-rendering:geometricPrecision; image-rendering:optimizeQuality; fill-rule:evenodd; clip-rule:evenodd" xmlns:xlink="http://www.w3.org/1999/xlink">
<g><path style="opacity:1" fill="#000000" d="M 1736.5,12.5 C 1801.31,9.15453 1851.15,34.4879 1886,88.5C 1915.42,143.781 1914.42,198.115 1883,251.5C 1844.67,305.766 1792.83,328.932 1727.5,321C 1672.9,310.713 1633.73,280.547 1610,230.5C 1587.03,172.589 1594.37,118.589 1632,68.5C 1659.72,36.6226 1694.55,17.9559 1736.5,12.5 Z"/></g>
<g><path style="opacity:1" fill="#000000" d="M 2201.5,176.5 C 2270.29,174.794 2319.46,204.794 2349,266.5C 2353.9,278.75 2357.23,291.416 2359,304.5C 2359.67,521.167 2359.67,737.833 2359,954.5C 2352.01,999.486 2326.18,1025.99 2281.5,1034C 2237.02,1037.19 2205.52,1018.69 2187,978.5C 2183.9,970.431 2181.9,962.098 2181,953.5C 2180.59,790.434 2180.26,628.768 2180,468.5C 2174.66,463.791 2168.83,463.291 2162.5,467C 2160.51,468.319 2159.35,470.152 2159,472.5C 2157.84,588.482 2157.34,704.482 2157.5,820.5C 2158.32,1159.12 2158.49,1498.79 2158,1839.5C 2156.57,1880.22 2138.73,1911.38 2104.5,1933C 2048.72,1963.23 1998.88,1955.4 1955,1909.5C 1938.67,1889.51 1930,1866.51 1929,1840.5C 1929.3,1615.65 1928.96,1392.31 1928,1170.5C 1926.79,1168.95 1925.29,1167.78 1923.5,1167C 1918.23,1165.93 1913.23,1166.6 1908.5,1169C 1907.81,1170.07 1907.31,1171.23 1907,1172.5C 1906.83,1449.4 1906.33,1726.24 1905.5,2003C 1906.42,2011.58 1906.75,2020.24 1906.5,2029C 1905.46,2082.77 1880.13,2119.77 1830.5,2140C 1773.64,2156.38 1728.47,2140.21 1695,2091.5C 1684.75,2073.35 1679.25,2053.85 1678.5,2033C 1678.5,1597.04 1678.5,1160.87 1678.5,724.5C 1674.82,724.335 1671.15,724.501 1667.5,725C 1665.93,727.93 1665.1,731.097 1665,734.5C 1664.67,885.833 1664.33,1037.17 1664,1188.5C 1660.42,1234.06 1636.92,1263.56 1593.5,1277C 1553.68,1284.17 1521.18,1272.01 1496,1240.5C 1486.57,1226.55 1481.41,1211.39 1480.5,1195C 1479.83,1135 1479.17,1075 1478.5,1015C 1478.53,934.162 1478.53,852.495 1478.5,770C 1479.21,728.441 1480.21,687.441 1481.5,647C 1485.26,525.886 1542.6,440.219 1653.5,390C 1825.93,318.452 1999.27,249.119 2173.5,182C 2182.86,179.56 2192.2,177.727 2201.5,176.5 Z"/></g>
</svg>
